<?xml version="1.0" encoding="utf-8"?>
<!-- Generator: Adobe Illustrator 19.2.1, SVG Export Plug-In . SVG Version: 6.00 Build 0)  -->
<svg version="1.1" id="Capa_1" xmlns="http://www.w3.org/2000/svg" xmlns:xlink="http://www.w3.org/1999/xlink" x="0px" y="0px"
	 viewBox="0 0 1400 980" enable-background="new 0 0 1400 980" xml:space="preserve">
<g>
	<path fill="#151D38" d="M443.4,813.3c-0.3-3.7,0.1-3,2.8-3c37.8,0,75.5,0,113.3,0c3.8,0,3.4,0.3,3.4-3.3c0-3.7,0-7.4,0-11
		c0-2.3,0.3-2.5,2.5-2.5c1.8,0,3.5-0.1,5.3,0c1.1,0,1.6-0.4,1.5-1.6c-0.1-0.6,0-1.3,0-1.9c0-119.5,0-239,0-358.5
		c0-4,0.5-3.5-3.6-3.5c-1.3,0-2.6,0-3.8,0c-1.5-0.1-1.8-0.4-2-1.8c-0.1-0.6,0-1.1,0-1.7c0-11.9,0-23.8,0-35.8c0-0.6,0-1.3,0-1.9
		c0.1-0.9,0.6-1.5,1.6-1.5c0.6,0,1.3,0,1.9,0c9.4,0,18.7,0,28.1,0c0.6,0,1.1,0,1.7,0c1.7-0.1,1.7-0.1,1.7-1.8c0-4.3,0-8.6,0-13
		c0-4.3,0-4.3,4.4-4.3c25.8,0,51.7,0,77.5,0c3.4,0,3,0.4,3.1-3.1c0-10.6,0-21.1,0-31.7c0-0.8,0-1.6,0-2.4c0.4-5.1,3.9-8.4,9-8.5
		c5.7-0.1,11.4-0.1,17,0c5.5,0.1,9.1,3.8,9.2,9.3c0,11.1,0,22.2,0,33.4c0,3.4-0.4,3,3.1,3c25.8,0,51.7,0,77.5,0c0.6,0,1.3,0,1.9,0
		c2,0.1,2.4,0.4,2.4,2.4c0,4.8,0,9.6,0,14.4c0,2.2,0,2.3,2.2,2.3c9.7,0,19.4,0,29,0c0.6,0,1.3,0,1.9,0c1.4,0.1,1.8,0.5,1.9,1.9
		c0,0.5,0,1,0,1.4c0,12,0,24,0,36c0,0.5,0,1,0,1.4c-0.1,1.4-0.5,1.8-2,1.8c-2,0.1-4,0.1-6,0c-1.1,0-1.6,0.4-1.6,1.5
		c0,0.6,0,1.3,0,1.9c0,119.5,0,239,0,358.5c0,4-0.6,3.5,3.6,3.6c0.7,0,1.4,0,2.2,0c3.7,0,3.7,0,3.7,3.8c0,3.2,0,6.4,0,9.6
		c0,3.8-0.5,3.5,3.4,3.5c37,0,74.1,0,111.1,0c0.6,0,1.3,0,1.9,0c3,0,3,0,3.2,3.1C786.2,813.3,614.8,813.3,443.4,813.3z"/>
	<path fill="#7DA4EC" d="M575,609.2c0,60.2,0,120.5,0,180.7c0,3.6-0.5,3.3,3.3,3.3c38.7,0,77.4,0,116.2,0c4.4,0,4.4,0,4.4-4.5
		c0-2.1,0-2.1-2.1-2.1c-0.6,0-1.3,0-1.9,0c-32.6,0-65.3,0-97.9,0c-4,0-4,0-4-4.1c0-117.8,0-235.7,0-353.5c0-4.1,0-4.1,4.1-4.1
		c69,0,137.9,0,206.9,0c4,0,4,0,4,3.9c0,118,0,236,0,354c0,3.8,0,3.8-3.8,3.8c-33,0-65.9,0-98.9,0c-3.8,0-3.3-0.3-3.3,3.4
		c0,3.5-0.5,3.3,3.2,3.3c39,0,77.9,0,116.9,0c4.4,0,3.8,0.5,3.8-3.8c0-119.9,0-239.8,0-359.8c0-0.9,0-1.8,0-2.6
		c0.1-1.8,0.4-2.1,2.1-2.1c1.8-0.1,3.5,0,5.3,0c2.1,0,2.1,0,2.1-2.2c0-0.3,0-0.6,0-1c0-10.2,0-20.5,0-30.7c0-3.4,0.3-3.1-3.1-3.1
		c-87.8,0-175.5,0-263.3,0c-0.6,0-1.1,0-1.7,0c-0.9,0-1.4,0.3-1.3,1.2c0,0.6,0,1.1,0,1.7c0,10.3,0,20.6,0,31c0,0.2,0,0.5,0,0.7
		c0,2.3,0,2.3,2.2,2.3c1,0,2.1,0,3.1,0c4.3,0,4-0.1,4,4.1C575,489.1,575,549.2,575,609.2z"/>
	<path fill="#7DA4EC" d="M701.7,605.9c0,58.1,0,116.1,0,174.2c0,0.8,0,1.6,0,2.4c0,0.8,0.4,1.1,1.2,1.2c0.4,0,0.8,0,1.2,0
		c32.8,0,65.6,0,98.4,0c2.4,0,2.4,0,2.4-2.4c0-0.2,0-0.5,0-0.7c0-116.6,0-233.2,0-349.9c0-3.2,0.3-3-3-3c-32.2,0-64.5,0-96.7,0
		c-3.9,0-3.5-0.5-3.5,3.4C701.7,489.5,701.7,547.7,701.7,605.9z"/>
	<path fill="#7DA4EC" d="M698.8,605.9c0-58.1,0-116.1,0-174.2c0-0.7,0-1.4,0-2.2c-0.1-1.7-0.1-1.7-1.8-1.7c-0.2,0-0.5,0-0.7,0
		c-32.6,0-65.3,0-97.9,0c-2.6,0-2.6,0-2.6,2.6c0,0.2,0,0.3,0,0.5c0,116.5,0,233.1,0,349.6c0,3.6-0.2,3.2,3.3,3.2
		c32.2,0,64.3,0,96.5,0c3.8,0,3.3,0.3,3.3-3.4C698.8,722.2,698.8,664,698.8,605.9z"/>
	<path fill="#7DA4EC" d="M700.2,810.2c43.7,0,87.4,0,131,0c0.7,0,1.4,0,2.2,0c1.2,0.1,1.5-0.5,1.5-1.6c0-3,0-6.1,0-9.1
		c0-3.6,0.2-3.2-3.2-3.2c-87.5,0-175,0-262.5,0c-0.6,0-1.3,0-1.9,0c-1.2-0.1-1.5,0.5-1.5,1.6c0,3,0,5.9,0,8.9c0,3.8-0.6,3.5,3.4,3.5
		C612.9,810.2,656.6,810.2,700.2,810.2z"/>
	<path fill="#7DA4EC" d="M700.2,385.1c32.1,0,64.3,0,96.4,0c3.7,0,3.3,0.4,3.3-3.3c0-3.8,0.3-3.3-3.3-3.3c-63.9,0-127.8,0-191.7,0
		c-4.3,0-4.3,0-4.3,4.3c0,2.4,0,2.4,2.4,2.4c0.6,0,1.1,0,1.7,0C636.6,385.1,668.4,385.1,700.2,385.1z"/>
	<path fill="#7DA4EC" d="M700.2,375.6c32.4,0,64.8,0,97.2,0c2.6,0,2.6,0,2.6-2.6c0-0.1,0-0.2,0-0.2c-0.1-4.1,0.6-3.7-3.7-3.7
		c-63.8,0-127.6,0-191.4,0c-4.8,0-4.1-0.7-4.2,4.2c0,2.4,0,2.4,2.4,2.4c0.5,0,1,0,1.4,0C636.4,375.6,668.3,375.6,700.2,375.6z"/>
	<path fill="#7DA4EC" d="M700.2,327.7c1.7,0,3.4,0,5,0c2.6,0,5.3,0,7.9,0c1.5,0,1.7-0.4,0.8-1.7c-1.2-1.8-3-2.7-5.1-2.7
		c-5.8-0.1-11.5,0-17.3,0c-2,0-3.7,0.9-4.9,2.5c-0.3,0.4-0.8,0.9-0.5,1.5c0.3,0.6,1,0.4,1.5,0.4
		C691.9,327.7,696.1,327.7,700.2,327.7z"/>
	<path fill="#7DA4EC" d="M707.2,341C707.2,341,707.1,341,707.2,341c0,1.5,0,3,0,4.6c0,1,0.4,1.5,1.4,1.5c1.7,0,3.4,0,5,0
		c1,0,1.5-0.4,1.5-1.4c0-2.9,0-5.7,0-8.6c0-0.9-0.4-1.3-1.3-1.3c-1.8,0-3.5,0-5.3,0c-0.9,0-1.3,0.4-1.3,1.3
		C707.2,338.3,707.2,339.7,707.2,341z"/>
	<path fill="#7DA4EC" d="M715,355.6C715,355.6,715,355.6,715,355.6c0-1.4,0-2.9,0-4.3c0-0.9-0.3-1.3-1.3-1.3c-1.7,0-3.5,0-5.3,0
		c-1.1,0-1.4,0.5-1.4,1.5c0,2.8,0,5.6,0,8.4c0,1,0.3,1.5,1.4,1.4c1.7,0,3.3-0.1,5,0c1.2,0,1.5-0.5,1.5-1.6
		C715,358.3,715,356.9,715,355.6z"/>
	<path fill="#7DA4EC" d="M696.4,341.3c0,1.5,0,3,0,4.5c0,0.8,0.4,1.2,1.1,1.2c1.8,0,3.7,0,5.5,0c0.8,0,1.1-0.4,1.1-1.2
		c0-2.9,0-5.9,0-8.8c0-0.9-0.3-1.3-1.3-1.3c-1.8,0-3.5,0-5.3,0c-0.9,0-1.3,0.4-1.3,1.3C696.4,338.4,696.4,339.8,696.4,341.3z"/>
	<path fill="#7DA4EC" d="M693.5,341.4c0-1.4,0-2.9,0-4.3c0-1-0.3-1.5-1.4-1.5c-1.7,0-3.4,0-5,0c-1,0-1.5,0.3-1.5,1.4
		c0,2.9,0,5.8,0,8.6c0,0.9,0.3,1.3,1.3,1.3c1.8,0,3.5,0,5.3,0c1.1,0,1.4-0.5,1.3-1.5C693.5,344.2,693.5,342.8,693.5,341.4z"/>
	<path fill="#7DA4EC" d="M704.2,355.7c0-1.5,0-3,0-4.6c0-0.8-0.3-1.2-1.1-1.2c-1.8,0-3.7,0-5.5,0c-0.8,0-1.2,0.3-1.2,1.1
		c0,3,0,5.9,0,8.9c0,0.8,0.3,1.2,1.1,1.2c1.8,0,3.7,0,5.5,0c0.8,0,1.2-0.4,1.1-1.2C704.2,358.6,704.2,357.2,704.2,355.7z"/>
	<path fill="#7DA4EC" d="M693.5,355.8C693.5,355.8,693.5,355.8,693.5,355.8c0-1.5,0-3,0-4.5c0-0.7-0.2-1.2-1.1-1.2
		c-1.9,0-3.8,0-5.7,0c-0.8,0-1.1,0.5-1.1,1.2c0,2.9,0,5.9,0,8.8c0,0.8,0.4,1.2,1.2,1.1c1.8,0,3.5,0,5.3,0c1.2,0,1.5-0.6,1.4-1.6
		C693.5,358.3,693.5,357,693.5,355.8z"/>
	<path fill="#7DA4EC" d="M700.3,332.8c4.1,0,8.1,0,12.2,0c0.6,0,1.1,0,1.7,0c0.6,0,0.8-0.4,0.9-0.9c0.1-0.7-0.3-1.1-0.9-1.1
		c-0.5,0-1,0-1.4,0c-8.2,0-16.4,0-24.6,0c-0.5,0-1,0-1.4,0c-0.6,0-0.8,0.4-0.8,0.9c0,0.6,0.2,1.1,0.9,1.1c0.6,0,1.1,0,1.7,0
		C692.3,332.8,696.3,332.8,700.3,332.8z"/>
	<path fill="#151D38" d="M700.2,366c4.1,0,8.2,0,12.2,0c0.6,0,1.1,0,1.7,0c0.5,0,0.9-0.3,0.9-0.9c0-0.6-0.3-0.9-0.8-1
		c-0.5,0-1,0-1.4,0c-8.2,0-16.5,0-24.7,0c-0.5,0-1,0-1.4,0c-0.6,0-0.8,0.4-0.9,0.9c0,0.6,0.2,0.9,0.8,0.9c0.6,0,1.1,0,1.7,0
		C692.2,366,696.2,366,700.2,366z"/>
	<path fill="#ACDCF6" d="M835.1,166.7c1.6,0.7,3.3,0.6,4.9,0.9c21.9,3.6,39.5,21.2,43,43.2c0.4,2.4,0.6,2.2,2.4,1.2
		c19.9-11.2,44.3,0.5,47.9,23c0.2,1.3,0.2,2.7,0.3,4.1c0,0.9,0.3,1.2,1.2,0.8c1.2-0.6,2.5-0.9,3.9-1.2c11.5-2.3,21.9,8,19.7,19.6
		c-0.1,0.4-0.2,0.8-0.3,1.2c-0.2,1-0.8,1.6-1.9,1.4c-1.1-0.3-1.1-1.2-0.9-2.1c0.1-0.3,0.2-0.6,0.2-0.9c0.8-5.8-1-10.7-5.9-14
		c-4.9-3.3-10-3.3-15.1-0.3c-1,0.6-1.8,1.9-3.1,1c-1.2-0.8-0.6-2.1-0.5-3.1c0.8-14.8-9.6-27.4-23.3-30.1c-8.1-1.6-15.6-0.1-22.4,4.5
		c-0.4,0.3-0.8,0.6-1.2,0.8c-2.1,1.5-2.9,1.1-3.2-1.5c-1.6-14.7-8.1-26.7-20-35.5c-29.6-21.7-71.6-5.4-78.2,31.2
		c-3.3,18.2,2.6,33.7,16.4,46.2c0.5,0.5,1.1,0.9,1.6,1.4c0.5,0.5,0.6,1.1,0.2,1.7c-0.5,0.7-1.2,0.9-1.9,0.5c-0.6-0.3-1-0.7-1.5-1.2
		c-11.1-9.7-17.3-21.8-18.4-36.5c-0.5-6.6,0.3-13.1,2.3-19.4c0.6-2,0.6-2-1.1-3c-17.3-10.6-40.3,0.4-42.9,20.6
		c-0.1,1-0.2,2.1-0.3,3.1c-0.1,0.9,0,1.8-1.1,2.1c-0.9,0.2-1.5-0.3-1.9-1.1c-0.2-0.3-0.4-0.7-0.7-1c-3.7-4.4-8.3-6.2-13.9-4.8
		c-5.6,1.4-8.8,5.2-9.9,10.8c-0.1,0.7-0.2,1.4-0.3,2.1c-0.1,0.8-0.6,1.4-1.4,1.4c-0.9,0-1.5-0.6-1.5-1.5c0-0.6,0-1.1,0-1.7
		c1.4-12.7,15.8-18.9,26.1-11.4c0.1,0.1,0.2,0.2,0.4,0.3c1.4,1,1.4,1,1.8-0.7c2.9-13.2,12.4-22.6,25.7-25c7.1-1.2,13.9-0.1,20.2,3.3
		c0.3,0.2,0.6,0.3,0.8,0.5c1.4,0.9,1.6,1.5,2.7-0.9c2.6-5.5,6.1-10.5,10.5-14.8c8.5-8.3,18.7-13.2,30.5-14.8c0.7-0.1,1.5,0,2-0.5
		C829.7,166.7,832.4,166.7,835.1,166.7z"/>
	<path fill="#151D38" d="M308.6,328c0.8,0,1-0.7,1.5-1.1c1.3-0.9,2.9-0.7,3.9,0.4c1,1.1,1,2.6,0,3.7c-0.9,1.1-2.6,1.3-3.9,0.4
		c-0.5-0.3-0.7-1.1-1.5-1.1C308.6,329.6,308.6,328.8,308.6,328z"/>
	<path fill="#151D38" d="M1091.4,297.3c-0.4,0.4-0.7,0.9-1.2,1.1c-1.1,0.7-2.6,0.4-3.5-0.6c-0.9-1-0.9-2.7-0.1-3.7
		c0.9-1.1,2.2-1.4,3.4-0.7c0.5,0.3,0.9,0.7,1.3,1C1091.4,295.4,1091.4,296.3,1091.4,297.3z"/>
	<path fill="#151D38" d="M530.9,168.7c2,0.2,4.1,0.4,6.2,0.6c0.2,0,0.5,0.2,0.6,0.4c0.1,0.2-0.2,0.4-0.4,0.5c-0.5,0.2-1,0.5-1.5,0.7
		c-11.3,5.7-17.1,17.6-15.8,28.6c1.5,13,10.4,23,22.8,25.6c9.1,1.9,17.3-0.3,24.5-6.1c0.4-0.3,0.8-0.7,1.3-1.1
		c0.3-0.2,0.5-0.7,0.9-0.4c0.1,0.1,0,0.6-0.1,0.9c-2.2,8.6-6.8,15.6-13.6,21.2c-3.7,3-7.8,5.2-12.3,6.8c-2,0.7-2,0.7-0.6,2.2
		c6.8,7.1,11.1,15.5,13.1,25.2c0.6,3,0.8,6,0.9,9.1c0,0.3,0,0.6,0,1c-0.1,0.8-0.6,1.4-1.4,1.3c-0.8,0-1.3-0.6-1.4-1.4
		c-0.1-0.6-0.1-1.1-0.1-1.7c-0.5-20.5-15.1-40-37.4-45.1c-26-5.9-52.5,11.5-57.3,37.7c-0.5,2.6-0.8,5.2-0.9,7.9c0,0.6,0,1.1-0.1,1.7
		c-0.3,0.9-1.4,1.2-2.1,0.6c-0.5-0.4-0.8-1-1.1-1.5c-5.5-8.1-15.1-11.9-24.3-9.8c-9.5,2.2-16.4,9.7-17.8,19.5
		c-0.1,0.7-0.1,1.4-0.2,2.2c-0.1,1.6-0.6,2.3-1.6,2.2c-1,0-1.3-0.7-1.3-2.4c0-2.8,0.6-5.6,1.6-8.2c6.5-17.3,28.8-22.3,42.2-9.6
		c0.6,0.5,1,1.6,1.8,1.3c0.8-0.3,0.5-1.4,0.6-2.2c3-20.5,18.2-37,38-41.9c1.5-0.4,3-0.6,4.5-0.9c0.8-0.2,0.9-0.5,0.5-1.1
		c-0.4-0.5-0.7-1-1.1-1.6c-16.2-24.1-1.8-57,26.9-61.5C526.7,168.9,528.8,168.9,530.9,168.7z"/>
	<path fill="#151D38" d="M645.7,280.9c-0.1,0.7-0.4,1.3-1.1,1.4c-0.5,0.1-1.1,0.1-1.7,0.1c-5.5,0.4-9.2,3.2-11.1,8.4
		c-1,2.8-1.4,5.7-1.6,8.7c-0.1,1.4-0.1,2.7-0.1,4.1c0,0.4,0,0.8,0,1.2c-0.1,0.9-0.6,1.5-1.6,1.5c-0.8-0.1-1.2-0.7-1.3-1.5
		c-0.1-1.9-0.2-3.8-0.3-5.7c-0.2-2.9-0.7-5.7-1.7-8.4c-1.8-5-5.4-7.7-10.8-8.1c-0.6,0-1.1,0-1.7-0.1c-0.8-0.1-1.3-0.6-1.3-1.4
		c0-0.9,0.5-1.3,1.3-1.4c1-0.1,1.9-0.2,2.9-0.3c4.7-0.6,7.7-3.2,9.4-7.5c1.1-2.7,1.6-5.5,1.8-8.4c0.1-1.9,0.2-3.8,0.3-5.7
		c0-0.9,0.2-1.8,1.3-1.9c0.9-0.1,1.5,0.6,1.6,2c0.1,3.6,0.2,7.2,1,10.7c0.2,0.6,0.3,1.2,0.5,1.9c1.7,5.6,5.3,8.8,11.2,9.3
		c0.6,0.1,1.3,0,1.9,0.2C645.3,279.7,645.6,280.2,645.7,280.9z M628.4,271.3c-0.1,0.2-0.3,0.4-0.3,0.6c-1.3,3.5-3.3,6.5-6.7,8.5
		c-0.9,0.5-0.3,0.9,0.2,1.2c3.2,1.9,5.1,4.8,6.4,8.1c0.1,0.3,0.3,0.5,0.5,0.8c0.2-0.2,0.5-0.5,0.6-0.7c1.2-3.5,3.3-6.4,6.5-8.3
		c1-0.6,0.4-1-0.2-1.3c-3-1.7-4.8-4.4-6.1-7.5c-0.1-0.4-0.3-0.7-0.5-1.1C628.7,271.5,628.6,271.4,628.4,271.3z"/>
	<path fill="#ACDCF6" d="M916.8,566.5c-1.1-0.2-1.4-0.9-1.4-1.9c0-2-0.1-4-0.5-6c-0.2-1.1-0.5-2.2-1-3.2c-1.1-2.3-2.9-3.6-5.4-3.8
		c-0.5,0-1-0.1-1.4-0.1c-0.9-0.1-1.5-0.5-1.5-1.5c0-1,0.8-1.3,1.6-1.4c0.3,0,0.6-0.1,1-0.1c3.2-0.2,5.1-2,6.2-4.9
		c0.7-2,1-4.2,1.1-6.4c0-0.8,0-1.6,0.1-2.4c0.1-0.8,0.6-1.3,1.5-1.3c0.9,0,1.3,0.6,1.3,1.4c0.1,1.7,0.2,3.3,0.4,5
		c0.1,1.6,0.5,3.2,1.2,4.6c1.1,2.3,2.9,3.6,5.4,3.8c0.2,0,0.5,0,0.7,0.1c1.6,0.2,2.3,0.7,2.2,1.6c-0.2,1.4-1.3,1.4-2.4,1.5
		c-3.6,0.2-5.7,2.3-6.6,5.6c-0.7,2.5-0.8,5-0.9,7.6C918.2,565.7,917.9,566.4,916.8,566.5z M916.9,545.7c-0.4,0.1-0.6,0.4-0.7,0.7
		c-0.6,1.1-1.4,2.1-2.4,2.9c-0.7,0.6-0.6,1,0.1,1.5c1.4,0.9,1.8,2.6,3.1,3.5c0.9-1.3,1.7-2.7,3-3.7c0.6-0.5,0.5-0.9-0.1-1.3
		c-1.1-0.9-1.9-1.9-2.6-3.1C917.2,546,917.1,545.9,916.9,545.7z"/>
	<path fill="#7DA4EC" d="M411.2,496.2c1,0.2,1.5,0.8,1.5,1.8c0,1.9,0.1,3.8,0.5,5.7c0.2,0.9,0.4,1.7,0.6,2.5c1,2.7,2.8,4.4,5.7,4.8
		c0.6,0.1,1.3,0.1,1.9,0.2c0.8,0.1,1.1,0.6,1.1,1.3c0,0.7-0.4,1.2-1.1,1.4c-0.5,0.1-0.9,0.1-1.4,0.1c-3.2,0.3-5.3,2.1-6.3,5.1
		c-0.7,2.1-1,4.2-1,6.4c0,0.6,0,1.3,0,1.9c0,0.9-0.4,1.6-1.4,1.6c-1,0-1.4-0.6-1.4-1.5c-0.1-1.7-0.2-3.3-0.4-5
		c-0.1-1.4-0.5-2.7-1-3.9c-1.1-2.6-3-4.1-5.8-4.4c-0.5-0.1-1,0-1.4-0.1c-0.8-0.1-1.3-0.6-1.4-1.4c0-0.8,0.5-1.3,1.3-1.4
		c0.6-0.1,1.1-0.1,1.7-0.2c3.2-0.4,5-2.3,5.9-5.2c0.7-2.3,0.9-4.7,1-7.1c0-0.6,0-1.1,0.1-1.7C410.1,496.6,410.6,496.3,411.2,496.2z
		 M411.1,508.5c-0.1,0.2-0.3,0.3-0.4,0.5c-0.7,1.2-1.5,2.3-2.6,3.1c-0.7,0.5-0.4,0.9,0.1,1.3c1,0.8,1.8,1.8,2.4,2.9
		c0.3,0.6,0.7,0.9,1.1,0.1c0.7-1.2,1.5-2.3,2.6-3.1c0.6-0.5,0.5-0.9-0.1-1.3c-1-0.8-1.8-1.8-2.4-2.9
		C411.6,508.8,411.5,508.6,411.1,508.5z"/>
	<path fill="#ACDCF6" d="M908.3,334.2c0,0.6-0.3,1.2-1.1,1.3c-0.5,0.1-1.1,0.1-1.7,0.2c-3.1,0.4-5.1,2.1-6.1,5c-0.7,2.1-1,4.4-1,6.6
		c0,0.6,0,1.3-0.1,1.9c-0.1,0.8-0.6,1.3-1.4,1.3c-0.9,0-1.3-0.5-1.4-1.3c-0.1-1.6-0.2-3.2-0.4-4.8c-0.1-0.9-0.2-1.7-0.5-2.6
		c-1.1-4.1-2.8-5.7-7.1-6.3c-0.3,0-0.6,0-0.9-0.1c-0.7-0.2-1.1-0.7-1.1-1.4c0-0.7,0.4-1.2,1.2-1.3c0.5-0.1,1-0.1,1.4-0.1
		c3.2-0.3,5.3-2.1,6.3-5.1c0.7-2.2,0.9-4.5,1-6.9c0-0.6,0-1.3,0.1-1.9c0.1-0.6,0.6-1,1.2-1c0.7,0,1.3,0.2,1.5,1
		c0.1,0.6,0.2,1.3,0.2,1.9c0,2.1,0.2,4.1,0.8,6.2c1.1,3.9,2.9,5.4,6.9,5.9c0.4,0,0.8,0,1.2,0.1C907.9,333.1,908.2,333.6,908.3,334.2
		z M900.4,334.4c-0.1-0.2,0-0.4-0.1-0.5c-1.2-1-2.2-2.3-3-3.6c-0.3-0.5-0.7-0.1-0.9,0.2c-0.7,1.2-1.5,2.3-2.5,3.1
		c-0.4,0.3-0.7,0.7-0.1,1.1c1.1,0.9,2,2,2.7,3.3c0.4,0.7,0.7,0.5,1,0c0.7-1.2,1.5-2.2,2.5-3.1C900.2,334.7,900.3,334.5,900.4,334.4z
		"/>
	<path fill="#151D38" d="M483.8,713.9c-1.2-0.2-1.5-1-1.5-1.9c0-1.8-0.2-3.7-0.4-5.5c-0.2-1.2-0.5-2.3-1-3.4c-1.1-2.4-2.9-3.7-5.5-4
		c-0.5-0.1-1,0-1.4-0.1c-0.9-0.1-1.5-0.6-1.5-1.5c0-0.8,0.6-1.2,1.4-1.3c0.4,0,0.8-0.1,1.2-0.2c3.4-0.3,5.3-2.3,6.3-5.4
		c0.6-2,0.9-4.1,0.9-6.1c0-0.6,0-1.1,0-1.7c0-1,0.4-1.8,1.5-1.7c0.9,0,1.3,0.8,1.3,1.7c0,1.8,0.2,3.5,0.4,5.3c0.2,1.5,0.6,3,1.3,4.3
		c1,2,2.6,3.2,4.8,3.5c0.7,0.1,1.4,0.2,2.1,0.3c0.7,0.1,1.2,0.5,1.3,1.2c0.1,0.8-0.4,1.4-1.2,1.6c-0.4,0.1-0.8,0.1-1.2,0.1
		c-3.5,0.2-5.6,2.2-6.5,5.4c-0.7,2.2-0.9,4.5-1,6.9c0,0.6,0,1.1-0.1,1.7C485,713.6,484.4,713.9,483.8,713.9z M487.4,697.4
		c-0.1-0.1-0.2-0.3-0.3-0.4c-1.1-0.9-2-2-2.7-3.3c-0.3-0.6-0.7-0.6-1,0c-0.8,1.3-2.3,2.3-2.8,3.5c-0.5,1.3,1.9,2,2.4,3.4
		c0.1,0.2,0.2,0.4,0.4,0.6c0.3,0.5,0.7,0.6,1,0c0.7-1.3,1.6-2.4,2.7-3.3C487.2,697.8,487.3,697.6,487.4,697.4z"/>
	<path fill="#151D38" d="M1033.4,496.8c-1.1-0.2-1.5-0.9-1.4-1.9c0-1.8-0.1-3.7-0.4-5.5c-0.2-1.1-0.5-2.2-0.9-3.2
		c-1-2.4-2.7-3.9-5.3-4.3c-0.7-0.1-1.4-0.2-2.1-0.3c-0.7-0.1-1.1-0.6-1.1-1.3c0-0.7,0.4-1.2,1.1-1.4c0.5-0.1,0.9-0.1,1.4-0.1
		c3.1-0.2,5.2-1.9,6.2-4.8c0.8-2.2,1-4.5,1.1-6.8c0-0.6,0-1.3,0.1-1.9c0.1-0.8,0.6-1.3,1.4-1.3c0.9,0,1.3,0.5,1.4,1.3
		c0.1,1.8,0.1,3.5,0.4,5.2c0.2,0.9,0.3,1.9,0.6,2.8c1,3.3,3.1,5.3,6.7,5.5c0.4,0,0.8,0,1.2,0.1c0.7,0.2,1.1,0.7,1.1,1.4
		c0,0.7-0.4,1.2-1.1,1.3c-0.5,0.1-1.1,0.1-1.7,0.2c-3.3,0.3-5.2,2.3-6.1,5.3c-0.7,2.1-0.9,4.4-1,6.6c0,0.6,0,1.3-0.1,1.9
		C1034.6,496.3,1034.1,496.7,1033.4,496.8z M1036.9,480.4c-0.1-0.1-0.1-0.3-0.2-0.4c-1.2-1.1-2.2-2.2-3-3.7
		c-0.3-0.5-0.7-0.2-0.9,0.2c-0.7,1.5-2,2.5-3,3.7c0.8,1.4,2.3,2.3,3,3.9c0.3,0.6,0.7,0.6,1,0c0.7-1.3,1.6-2.4,2.7-3.3
		C1036.8,480.6,1036.8,480.5,1036.9,480.4z"/>
	<path fill="#151D38" d="M394.6,646.3c2,0,3.6,1.7,3.6,3.7c0,2-1.6,3.6-3.7,3.6c-2.1,0-3.7-1.6-3.6-3.6
		C390.9,647.9,392.6,646.2,394.6,646.3z M395.2,649.8c-0.1-0.3-0.3-0.6-0.7-0.5c-0.5,0.1-0.6,0.4-0.5,0.8c0.1,0.4,0.4,0.5,0.7,0.4
		C395,650.4,395.2,650.2,395.2,649.8z"/>
	<path fill="#151D38" d="M503.7,556.4c2.1-0.1,3.7,1.4,3.7,3.5c0,2.1-1.5,3.7-3.5,3.7c-2.1,0.1-3.7-1.5-3.7-3.5
		C500.1,558.1,501.6,556.5,503.7,556.4z M503.1,560.1c0.1,0.3,0.3,0.6,0.6,0.6c0.5,0,0.7-0.3,0.6-0.8c-0.1-0.4-0.3-0.5-0.7-0.4
		C503.3,559.5,503.2,559.8,503.1,560.1z"/>
	<path fill="#151D38" d="M1016,394.9c0,2-1.7,3.6-3.7,3.6c-2,0-3.6-1.7-3.6-3.7c0-2.1,1.6-3.6,3.7-3.6
		C1014.5,391.2,1016.1,392.9,1016,394.9z M1013,395c0-0.4-0.1-0.7-0.5-0.7c-0.3-0.1-0.6,0-0.7,0.4c-0.1,0.5,0.1,0.8,0.6,0.8
		C1012.7,395.5,1012.9,395.3,1013,395z"/>
	<path fill="#ACDCF6" d="M400.2,402.6c0,1.7-1.2,2.8-2.9,2.8c-1.5,0-2.7-1.2-2.8-2.7c-0.1-1.6,1.3-3,2.8-3
		C398.9,399.6,400.2,401,400.2,402.6z"/>
	<path fill="#151D38" d="M894.4,655c-1.6,0-2.8-1.3-2.8-2.9c0.1-1.5,1.3-2.7,2.7-2.8c1.5,0,2.9,1.3,2.9,2.9
		C897.3,653.7,896,655,894.4,655z"/>
	<path fill="#151D38" d="M1060.3,687.2c0,1.7-1.2,2.8-2.9,2.8c-1.5,0-2.7-1.2-2.8-2.7c0-1.5,1.3-2.9,2.9-3
		C1059.1,684.3,1060.4,685.6,1060.3,687.2z"/>
	<path fill="#151D38" d="M926.8,448.2c0.8,0.2,1.4,0.6,1.3,1.5c-0.1,0.8-0.6,1.3-1.5,1.2c-0.7-0.1-1.2-0.5-1.2-1.3
		C925.5,448.7,926,448.3,926.8,448.2z"/>
	<path fill="#151D38" d="M454.9,452.3c-0.8-0.2-1.3-0.7-1.2-1.5c0.1-0.7,0.6-1.2,1.3-1.2c0.8,0,1.4,0.5,1.3,1.4
		C456.3,451.8,455.7,452.2,454.9,452.3z"/>
	<path fill="#151D38" d="M700.4,393.4c41.8,0,83.7,0,125.5,0c3.8,0,3.8,0,3.8,3.7c0,6.5,0,13,0,19.4c0,2.7-0.3,3.1-3,3.1
		c-8.7,0-17.4,0-26.2,0c-75.1,0-150.2,0-225.3,0c-4.6,0-4.2-0.1-4.2-4.2c0-6.2,0-12.3,0-18.5c0-3.5,0-3.5,3.6-3.5
		C616.6,393.4,658.5,393.4,700.4,393.4z M700.5,396.3c-40.7,0-81.4,0-122.1,0c-0.6,0-1.3,0-1.9,0c-2.5,0-2.5,0-2.5,2.5
		c0,4.6,0,9.3,0,13.9c0,4.5-0.7,4,3.9,4c81.7,0,163.5,0,245.2,0c0.2,0,0.5,0,0.7,0c3.2,0,3,0.3,3-2.9c0-4.7,0-9.4,0-14.2
		c0-3.7,0.2-3.3-3.2-3.3C782.6,396.3,741.5,396.3,700.5,396.3z"/>
	<path fill="#151D38" d="M585,605.7c0,58.6,0,117.3,0,175.9c0,0.7,0,1.4,0,2.2c0.1,1.2-0.4,1.5-1.6,1.5c-1.1,0-1.4-0.5-1.3-1.5
		c0-0.6,0-1.1,0-1.7c0-117.5,0-235,0-352.5c0-0.6,0-1.1,0-1.7c0-0.9,0.2-1.5,1.3-1.5c1.1,0,1.7,0.2,1.6,1.5c-0.1,0.7,0,1.4,0,2.2
		C585,488.6,585,547.1,585,605.7z"/>
	<path fill="#151D38" d="M817.9,605.7c0,58.6,0,117.3,0,175.9c0,0.7,0,1.4,0,2.2c0,0.9-0.2,1.5-1.3,1.5c-1.1,0-1.7-0.3-1.6-1.5
		c0-0.6,0-1.1,0-1.7c0-117.5,0-235,0-352.5c0-0.6,0-1.1,0-1.7c-0.1-1.2,0.5-1.5,1.6-1.5c1.1,0,1.4,0.5,1.3,1.5c0,0.8,0,1.6,0,2.4
		C817.9,488.7,817.9,547.2,817.9,605.7z"/>
	<path fill="#151D38" d="M792,565.4c0,11.6,0,23.2,0,34.8c0,0.6,0,1.3,0,1.9c0,1.2-0.6,1.8-1.8,1.8c-0.6,0-1.1,0-1.7,0
		c-21.2,0-42.4,0-63.6,0c-0.6,0-1.1,0-1.7,0c-1.4-0.1-1.8-0.5-1.9-2c0-0.6,0-1.1,0-1.7c0-23.4,0-46.9,0-70.3c0-0.5,0-1,0-1.4
		c0.1-1.7,0.5-2.1,2.2-2.2c0.5,0,1,0,1.4,0c21.1,0,42.2,0,63.3,0c0.2,0,0.5,0,0.7,0c2.7,0,2.9,0.2,2.9,2.8c0,3,0,5.9,0,8.9
		C792,547.1,792,556.2,792,565.4z M789.1,565.4c0-11,0-22.1,0-33.1c0-0.6,0-1.1,0-1.7c0.1-1-0.5-1.4-1.4-1.4c-0.6,0-1.3,0-1.9,0
		c-10.7,0-21.4,0-32.1,0c-9,0-18.1,0-27.1,0c-2.1,0-2.1,0-2.2,2.1c0,0.4,0,0.8,0,1.2c0,21.7,0,43.5,0,65.2c0,0.5,0,1,0,1.4
		c0.1,1.6,0.1,1.7,1.8,1.7c0.4,0,0.8,0,1.2,0c19.6,0,39.2,0,58.8,0c0.6,0,1.1,0,1.7,0c0.9,0,1.4-0.3,1.3-1.3c0-0.6,0-1.3,0-1.9
		C789.1,587,789.1,576.2,789.1,565.4z"/>
	<path fill="#151D38" d="M721.4,734.6c0-11.7,0-23.4,0-35c0-0.6,0-1.3,0-1.9c0.1-0.9,0.6-1.5,1.5-1.5c0.6,0,1.1,0,1.7,0
		c21.4,0,42.7,0,64.1,0c0.5,0,1,0,1.4,0c1.5,0.1,1.7,0.4,1.8,1.9c0,0.5,0,1,0,1.4c0,23.5,0,47,0,70.6c0,3.5,0,3.5-3.4,3.5
		c-21.2,0-42.4,0-63.6,0c-0.6,0-1.1,0-1.7,0c-1.4-0.1-1.8-0.5-1.9-1.9c0-0.6,0-1.1,0-1.7C721.4,758.1,721.4,746.3,721.4,734.6z
		 M789.1,734.8c0-10.9,0-21.8,0-32.6c0-0.6,0-1.3,0-1.9c0-0.9-0.4-1.3-1.3-1.3c-0.6,0-1.1,0-1.7,0c-19.6,0-39.2,0-58.8,0
		c-3.3,0-3-0.3-3,3.2c0,21.8,0,43.5,0,65.3c0,0.6,0,1.1,0,1.7c-0.1,1.1,0.4,1.6,1.6,1.5c0.4,0,0.8,0,1.2,0c19.8,0,39.5,0,59.3,0
		c0.5,0,1,0,1.4,0c0.9,0,1.4-0.3,1.3-1.2c0-0.6,0-1.3,0-1.9C789.1,756.6,789.1,745.7,789.1,734.8z"/>
	<path fill="#151D38" d="M721.4,649.9c0-11.8,0-23.5,0-35.3c0-0.6,0-1.3,0-1.9c0.1-0.9,0.6-1.5,1.5-1.5c0.6,0,1.1,0,1.7,0
		c21.4,0,42.7,0,64.1,0c0.5,0,1,0,1.4,0c1.2,0,1.8,0.5,1.8,1.7c0,0.6,0,1.1,0,1.7c0,23.5,0,47,0,70.6c0,3.5,0,3.5-3.5,3.5
		c-21.2,0-42.4,0-63.6,0c-3.5,0-3.5-0.1-3.5-3.4C721.4,673.4,721.4,661.7,721.4,649.9z M789.1,650c0-11,0-21.9,0-32.9
		c0-0.6,0-1.3,0-1.9c0-0.8-0.3-1.2-1.2-1.2c-0.6,0-1.1,0-1.7,0c-7.2,0-14.4,0-21.6,0c-12.7,0-25.4,0-38.2,0c-2.1,0-2.1,0-2.2,2.1
		c0,0.6,0,1.1,0,1.7c0,16.3,0,32.6,0,49c0,5.6,0,11.2,0,16.8c0,2.1,0,2.1,2.1,2.1c4.6,0,9.1,0,13.7,0c15.5,0,31,0,46.6,0
		c2.4,0,2.4,0,2.4-2.3c0-0.4,0-0.8,0-1.2C789.1,671.5,789.1,660.8,789.1,650z"/>
	<path fill="#151D38" d="M792,454.3c0,5.8,0,11.5,0,17.3c0,2.5-0.2,2.7-2.7,2.7c-5.2,0-10.4,0-15.6,0c-2.5,0-2.8-0.3-2.8-2.8
		c0-11.6,0-23.2,0-34.7c0-2.4,0.3-2.7,2.6-2.7c5.4,0,10.7,0,16.1,0c2.2,0,2.5,0.3,2.5,2.5C792,442.5,792,448.4,792,454.3z
		 M773.8,454.2c0,5.1,0,10.2,0,15.4c0,1.7,0.1,1.8,1.7,1.8c3.9,0,7.8,0,11.8,0c1.8,0,1.8-0.1,1.8-1.9c0-10.2,0-20.5,0-30.7
		c0-1.7-0.1-1.8-1.7-1.8c-3.9,0-7.8,0-11.8,0c-1.8,0-1.9,0.1-1.9,1.9C773.8,444,773.8,449.1,773.8,454.2z"/>
	<path fill="#151D38" d="M746.2,454.1c0-5.8,0-11.5,0-17.3c0-2.6,0.2-2.8,2.7-2.8c5.3,0,10.5,0,15.8,0c2.3,0,2.6,0.3,2.6,2.7
		c0,11.7,0,23.3,0,35c0,2.2-0.4,2.5-2.5,2.6c-5.4,0-10.7,0-16.1,0c-2.3,0-2.6-0.3-2.6-2.7C746.2,465.8,746.2,460,746.2,454.1z
		 M764.5,454.3c0-5.1,0-10.2,0-15.4c0-2,0-2-2-2c-3.8,0-7.7,0-11.5,0c-1.7,0-1.8,0.1-1.8,1.7c0,10.3,0,20.6,0,30.9
		c0,1.7,0.1,1.8,1.8,1.8c3.8,0,7.5,0,11.3,0c2.3,0,2.3,0,2.3-2.2C764.5,464.2,764.5,459.3,764.5,454.3z"/>
	<path fill="#151D38" d="M742.6,498.9c0,5.8,0,11.5,0,17.3c0,2.7-0.2,2.9-2.9,2.9c-5.2,0-10.4,0-15.6,0c-2.4,0-2.7-0.3-2.7-2.6
		c0-11.7,0-23.3,0-35c0-2.4,0.3-2.6,2.6-2.6c5.3,0,10.5,0,15.8,0c2.5,0,2.7,0.2,2.7,2.8C742.6,487.4,742.6,493.1,742.6,498.9z
		 M739.7,499c0-5.1,0-10.2,0-15.3c0-1.9,0-1.9-1.9-1.9c-3.8,0-7.7,0-11.5,0c-1.9,0-1.9,0.1-2,2.1c0,1.8,0,3.5,0,5.3
		c0,8.3,0,16.6,0,24.9c0,2.1,0,2.1,2.1,2.1c3.7,0,7.3,0,11,0c2.2,0,2.2,0,2.2-2.3C739.7,508.9,739.7,503.9,739.7,499z"/>
	<path fill="#151D38" d="M746.2,498.8c0-5.8,0-11.5,0-17.3c0-2.5,0.2-2.8,2.7-2.8c5.2,0,10.4,0,15.6,0c2.6,0,2.8,0.3,2.8,2.9
		c0,11.4,0,22.8,0,34.3c0,0.2,0,0.5,0,0.7c-0.1,1.9-0.4,2.2-2.3,2.3c-3,0-5.9,0-8.9,0c-2.3,0-4.6,0-6.9,0c-2.9,0-3-0.1-3-2.9
		C746.2,510.3,746.2,504.6,746.2,498.8z M764.5,499c0-5.1,0-10.2,0-15.3c0-1.9-0.1-1.9-1.9-1.9c-3.9,0-7.8,0-11.7,0
		c-1.7,0-1.7,0.1-1.7,1.8c0,10.2,0,20.4,0,30.7c0,1.9,0,1.9,1.8,1.9c3.8,0,7.7,0,11.5,0c2,0,2,0,2-2
		C764.5,509.1,764.5,504,764.5,499z"/>
	<path fill="#151D38" d="M792,499c0,5.8,0,11.5,0,17.3c0,2.5-0.2,2.7-2.8,2.7c-5.2,0-10.4,0-15.6,0c-2.5,0-2.8-0.3-2.8-2.7
		c0-11.6,0-23.2,0-34.7c0-2.4,0.3-2.7,2.8-2.7c5.2,0,10.4,0,15.6,0c2.5,0,2.7,0.2,2.7,2.7C792,487.4,792,493.2,792,499z
		 M789.1,498.9c0-5,0-10.1,0-15.1c0-2,0-2.1-2-2.1c-3.8,0-7.7,0-11.5,0c-1.8,0-1.9,0.1-1.9,1.9c0,10.2,0,20.4,0,30.7
		c0,1.7,0.1,1.8,1.7,1.8c3.9,0,7.8,0,11.7,0c1.8,0,1.8-0.1,1.9-1.9C789.1,509.1,789.1,504,789.1,498.9z"/>
	<path fill="#151D38" d="M721.4,454.1c0-5.8,0-11.5,0-17.3c0-2.5,0.3-2.7,2.7-2.8c5.3,0,10.5,0,15.8,0c2.2,0,2.5,0.3,2.5,2.5
		c0,11.7,0,23.5,0,35.2c0,2.2-0.4,2.5-2.5,2.5c-5.4,0-10.7,0-16.1,0c-2.2,0-2.6-0.3-2.6-2.7C721.4,465.8,721.4,459.9,721.4,454.1z
		 M739.7,454.3c0-5.2,0-10.4,0-15.6c0-1.1-0.2-1.8-1.6-1.8c-4.1,0.1-8.2,0.1-12.2,0c-1.3,0-1.6,0.7-1.6,1.8c0,10.3,0,20.6,0,30.9
		c0,1.7,0.1,1.7,1.8,1.8c3.8,0,7.7,0,11.5,0c2,0,2,0,2-2C739.7,464.4,739.7,459.3,739.7,454.3z"/>
	<path fill="#151D38" d="M715.2,574.7c0,4.5,0,8.9,0,13.4c0,2.3-0.2,2.5-2.5,2.5c-1.8,0-3.7,0-5.5,0c-1.6,0-1.9-0.4-2.1-2
		c0-0.3,0-0.6,0-1c0-8.7,0-17.4,0-26.1c0-2.7,0.3-3,3-3.1c1.6,0,3.2,0,4.8,0c1.8,0.1,2.2,0.4,2.2,2.3
		C715.2,565.5,715.2,570.1,715.2,574.7z M712.3,574.5C712.3,574.5,712.3,574.5,712.3,574.5c0-1.7,0-3.3,0-5c0-2.2,0-4.3,0-6.5
		c0-1.2-0.4-1.6-1.6-1.5c-0.2,0-0.3,0-0.5,0c-2.1,0-2.2,0-2.2,2.1c0,1.7,0,3.3,0,5c0,5.7,0,11.3,0,17c0,0.6-0.2,1.4,0.3,1.8
		c0.9,0.8,2.1,0.4,3.2,0.3c0.9-0.1,0.7-0.9,0.7-1.5C712.3,582.3,712.3,578.4,712.3,574.5z"/>
	<path fill="#151D38" d="M608.9,564.9c0-11.7,0-23.3,0-35c0-3.5,0.1-3.6,3.6-3.6c21.1,0,42.2,0,63.3,0c0.4,0,0.8,0,1.2,0
		c2,0.1,2.4,0.4,2.5,2.4c0,0.6,0,1.1,0,1.7c0,23.2,0,46.4,0,69.6c0,0.4,0,0.8,0,1.2c0,2.4-0.4,2.7-2.8,2.7c-21.7,0-43.3,0-65,0
		c-2.5,0-2.8-0.3-2.8-3C608.9,588.9,608.9,576.9,608.9,564.9z M676.6,565c0-10.4,0-20.8,0-31.2c0-1,0-1.9,0-2.9
		c-0.1-1.7-0.1-1.7-1.8-1.7c-0.4,0-0.8,0-1.2,0c-19.6,0-39.2,0-58.8,0c-0.6,0-1.1,0-1.7,0c-0.9,0-1.4,0.3-1.3,1.2c0,0.6,0,1.1,0,1.7
		c0,22,0,44,0,66c0,2.9-0.3,2.8,2.9,2.8c19.7,0,39.3,0,59,0c0.6,0,1.1,0,1.7,0c0.9,0,1.3-0.5,1.2-1.4c0-0.6,0-1.3,0-1.9
		C676.6,586.8,676.6,575.9,676.6,565z"/>
	<path fill="#151D38" d="M608.9,649.9c0-11.5,0-23,0-34.6c0-0.6,0-1.1,0-1.7c0.1-2.2,0.3-2.4,2.6-2.4c21.8,0,43.7,0,65.5,0
		c2.2,0,2.5,0.3,2.5,2.5c0,4.4,0,8.8,0,13.2c0,19.1,0,38.2,0,57.4c0,0.5,0,1,0,1.4c0,2.7-0.2,3-3.1,3c-7.5,0-15,0-22.6,0
		c-13.6,0-27.2,0-40.8,0c-0.3,0-0.6,0-1,0c-3.1,0-3.3-0.1-3.3-3.2C608.9,673.6,608.9,661.7,608.9,649.9z M676.6,650.1
		c0-11.3,0-22.5,0-33.8c0-2.1,0-2.1-2.1-2.2c-0.2,0-0.5,0-0.7,0c-19.7,0-39.5,0-59.2,0c-0.5,0-1,0-1.4,0c-0.9,0-1.4,0.3-1.3,1.2
		c0,0.6,0,1.1,0,1.7c0,21.9,0,43.8,0,65.7c0,3.3-0.3,3,2.9,3c19.7,0,39.3,0,59,0c0.5,0,1,0,1.4,0c1.2,0.1,1.6-0.5,1.5-1.6
		c0-0.6,0-1.1,0-1.7C676.6,671.7,676.6,660.9,676.6,650.1z"/>
	<path fill="#151D38" d="M679.5,734.6c0,11.7,0,23.4,0,35c0,0.6,0,1.1,0,1.7c-0.1,1.7-0.5,2.1-2.1,2.2c-0.6,0-1.1,0-1.7,0
		c-21,0-42.1,0-63.1,0c-0.2,0-0.5,0-0.7,0c-2.8,0-3-0.2-3-3c0-23.8,0-47.7,0-71.5c0-0.2,0-0.5,0-0.7c0.1-1.8,0.4-2.1,2.1-2.2
		c0.5,0,1,0,1.4,0c21.2,0,42.4,0,63.6,0c3.5,0,3.5,0,3.5,3.5C679.5,711.2,679.5,722.9,679.5,734.6z M611.8,734.7c0,11,0,22.1,0,33.1
		c0,3.1-0.2,2.8,2.9,2.8c19.7,0,39.3,0,59,0c0.5,0,1,0,1.4,0c1.2,0.1,1.6-0.5,1.5-1.6c0-0.6,0-1.1,0-1.7c0-11.4,0-22.9,0-34.3
		c0-10.6,0-21.3,0-31.9c0-2.2,0-2.2-2.1-2.2c-0.2,0-0.3,0-0.5,0c-19.9,0-39.8,0-59.7,0c-2.7,0-2.5-0.2-2.6,2.6
		C611.8,712.6,611.8,723.7,611.8,734.7z"/>
	<path fill="#151D38" d="M630,499.1c0,5.7,0,11.3,0,17c0,2.6-0.3,2.9-2.9,2.9c-5.1,0-10.2,0-15.3,0c-2.7,0-2.9-0.2-2.9-2.8
		c0-11.5,0-23,0-34.5c0-2.6,0.3-2.9,2.9-2.9c5.2,0,10.4,0,15.6,0c2.4,0,2.7,0.3,2.7,2.8C630,487.4,630,493.3,630,499.1z
		 M611.8,498.9c0,5.1,0,10.2,0,15.3c0,1.8,0.1,1.9,1.9,1.9c3.8,0,7.5,0,11.3,0c2.1,0,2.1,0,2.1-2.1c0-5.1,0-10.2,0-15.3
		c0-4.9,0-9.9,0-14.8c0-2.1,0-2.1-2.2-2.1c-3.8,0-7.5,0-11.3,0c-1.8,0-1.9,0.1-1.9,1.9C611.8,488.7,611.8,493.8,611.8,498.9z"/>
	<path fill="#151D38" d="M630,454.2c0,5.8,0,11.5,0,17.3c0,2.6-0.3,2.9-2.9,2.9c-5.2,0-10.4,0-15.6,0c-2.3,0-2.7-0.3-2.7-2.6
		c0-11.7,0-23.3,0-35c0-2.3,0.3-2.6,2.7-2.6c5.2,0,10.4,0,15.6,0c2.6,0,2.9,0.3,2.9,2.9C630,442.7,630,448.4,630,454.2z M611.8,454
		c0,5.1,0,10.2,0,15.3c0,2,0,2.1,1.9,2.1c3.8,0,7.7,0,11.5,0c1.8,0,1.8-0.1,1.9-2c0-10.1,0-20.3,0-30.4c0-2,0-2.1-2.2-2.1
		c-3.7,0-7.3,0-11,0c-2,0-2.1,0-2.1,2.2C611.8,444.1,611.8,449,611.8,454z"/>
	<path fill="#151D38" d="M654.7,498.9c0,5.8,0,11.7,0,17.5c0,2.4-0.2,2.6-2.6,2.6c-5.3,0-10.5,0-15.8,0c-2.4,0-2.7-0.3-2.7-2.6
		c0-11.7,0-23.3,0-35c0-2.3,0.3-2.6,2.6-2.6c5.3,0,10.5,0,15.8,0c2.4,0,2.6,0.2,2.6,2.6C654.7,487.2,654.7,493.1,654.7,498.9z
		 M651.8,498.9c0-5,0-10.1,0-15.1c0-2,0-2.1-1.9-2.1c-3.8,0-7.7,0-11.5,0c-1.8,0-1.9,0.1-1.9,1.9c0,10.2,0,20.4,0,30.6
		c0,1.7,0.1,1.8,1.7,1.8c3.9,0,7.8,0,11.7,0c1.8,0,1.8-0.1,1.8-1.9C651.8,509.1,651.8,504,651.8,498.9z"/>
	<path fill="#151D38" d="M679.5,499c0,5.8,0,11.5,0,17.3c0,2.5-0.3,2.7-2.8,2.8c-5.3,0-10.5,0-15.8,0c-2.3,0-2.5-0.2-2.5-2.4
		c0-11.7,0-23.5,0-35.2c0-2.2,0.3-2.5,2.5-2.5c5.4,0,10.7,0,16.1,0c2.3,0,2.6,0.3,2.6,2.7C679.5,487.3,679.5,493.2,679.5,499z
		 M676.6,499.1c0-5.2,0-10.4,0-15.6c0-1.7-0.1-1.8-1.8-1.8c-3.9,0-7.8,0-11.7,0c-1.7,0-1.8,0.1-1.8,1.7c0,10.3,0,20.6,0,30.9
		c0,1.7,0.1,1.7,1.8,1.8c3.8,0,7.7,0,11.5,0c2,0,2.1,0,2.1-2.2C676.6,509,676.6,504,676.6,499.1z"/>
	<path fill="#151D38" d="M658.4,454.1c0-5.8,0-11.5,0-17.3c0-2.5,0.2-2.7,2.7-2.7c5.2,0,10.4,0,15.6,0c2.5,0,2.8,0.3,2.8,2.7
		c0,11.6,0,23.2,0,34.7c0,2.4-0.4,2.7-2.8,2.8c-5.2,0-10.4,0-15.6,0c-2.5,0-2.7-0.2-2.7-2.7C658.4,465.7,658.4,459.9,658.4,454.1z
		 M661.3,454c0,5.2,0,10.4,0,15.6c0,1.7,0.1,1.8,1.7,1.8c3.9,0,7.8,0,11.8,0c1.7,0,1.8-0.1,1.8-1.7c0-10.3,0-20.6,0-30.9
		c0-1.7-0.1-1.8-1.8-1.8c-3.8,0-7.7,0-11.5,0c-2,0-2,0-2.1,2.2C661.3,444.1,661.3,449.1,661.3,454z"/>
	<path fill="#151D38" d="M654.7,454.1c0,5.8,0,11.7,0,17.5c0,2.5-0.2,2.7-2.7,2.8c-5.2,0-10.4,0-15.6,0c-2.5,0-2.8-0.3-2.8-2.8
		c0-11.6,0-23.2,0-34.7c0-2.5,0.3-2.7,2.8-2.7c5.2,0,10.4,0,15.6,0c2.5,0,2.7,0.2,2.7,2.7C654.7,442.6,654.7,448.3,654.7,454.1z
		 M651.8,454.3c0-5.1,0-10.2,0-15.3c0-2,0-2-2-2c-3.8,0-7.7,0-11.5,0c-1.7,0-1.8,0.1-1.8,1.8c0,10.3,0,20.6,0,30.9
		c0,1.7,0.1,1.8,1.8,1.8c3.8,0,7.7,0,11.5,0c2,0,2,0,2-2C651.8,464.4,651.8,459.3,651.8,454.3z"/>
	<path fill="#151D38" d="M685.4,574.7c0-4.6,0-9.1,0-13.7c0-2.2,0.3-2.5,2.5-2.6c1.7,0,3.4,0,5,0c2.1,0,2.5,0.4,2.5,2.6
		c0,5.6,0,11.2,0,16.8c0,3.4,0,6.9,0,10.3c0,2.2-0.3,2.4-2.5,2.5c-1.8,0-3.5,0-5.3,0c-1.9,0-2.2-0.3-2.2-2.3
		C685.4,583.8,685.4,579.3,685.4,574.7z M692.5,574.5c0-2,0-4,0-6c0-1.8,0-3.7,0-5.5c0-1.2-0.5-1.6-1.6-1.5c-0.4,0-0.8,0-1.2,0
		c-1.1-0.1-1.5,0.5-1.5,1.6c0,7.7,0,15.5,0,23.2c0,0.4-0.1,0.9,0.2,1.1c1,0.7,2.2,0.3,3.2,0.3c0.9,0,0.8-0.9,0.8-1.5
		C692.5,582.3,692.5,578.4,692.5,574.5z"/>
	<path fill="#151D38" d="M749.3,405.9c0-1.8,0-3.7,0-5.5c0.1-1.6,0.3-1.8,1.9-1.8c1.8,0,3.7-0.1,5.5,0c3.2,0.2,5.1,3.1,3.7,5.9
		c-0.6,1.2-0.4,1.9,0.1,3c1.3,2.8-0.6,5.6-3.7,5.8c-1.9,0.1-3.8,0.1-5.8,0c-1.5,0-1.7-0.3-1.8-1.9
		C749.3,409.6,749.3,407.8,749.3,405.9z M754.4,411.5C754.4,411.5,754.4,411.5,754.4,411.5c0.8,0,1.6,0.1,2.4,0
		c1.3-0.2,2.1-1,2.1-2.2c0-1.2-0.7-2.1-2-2.3c-1.1-0.2-2.2-0.1-3.3-0.1c-2.4,0-2.4,0-2.4,2.3c0,2.2,0,2.2,2.3,2.2
		C753.8,411.5,754.1,411.5,754.4,411.5z M754.4,405C754.4,405,754.4,405,754.4,405c0.7,0,1.4,0,2.1,0c1.5-0.1,2.3-0.8,2.4-2.1
		c0.1-1.4-0.8-2.3-2.4-2.4c-1.3-0.1-2.5,0-3.8,0c-1.1-0.1-1.5,0.4-1.5,1.5c-0.1,2.9-0.1,3,2.7,3C754.1,405,754.2,405,754.4,405z"/>
	<path fill="#151D38" d="M781.8,405.8c0,4.2-3.2,7.5-7.3,7.5c-4.1,0-7.5-3.2-7.5-7.4c0-4.2,3.2-7.5,7.4-7.5
		C778.5,398.4,781.8,401.6,781.8,405.8z M774.3,400.4c-3,0-5.5,2.5-5.5,5.5c0,3.1,2.6,5.7,5.7,5.6c3.1-0.1,5.6-2.7,5.4-5.8
		C779.8,402.7,777.4,400.3,774.3,400.4z"/>
	<path fill="#151D38" d="M621.4,399c4,0,7.2,3.1,7.2,7c0.1,4.1-3.2,7.3-7.2,7.3c-4,0-7.1-3.2-7.1-7.2
		C614.3,402.2,617.5,399,621.4,399z M621.5,400.9c-2.9,0-5.3,2.5-5.2,5.4c0.1,2.8,2.4,5.1,5.2,5.2c2.9,0,5.4-2.4,5.4-5.3
		C626.8,403.3,624.4,400.9,621.5,400.9z"/>
	<path fill="#151D38" d="M679.7,406.2c0-1.8,0-3.5,0-5.3c0-1.6,0.3-1.9,1.8-1.9c2-0.1,4,0,6,0c0.7,0,1.6,0,1.5,1
		c0,0.8-0.8,0.9-1.5,0.9c-1.4,0-2.9,0.1-4.3,0c-1.3-0.1-1.8,0.5-1.6,1.7c0,0.5,0,1,0,1.4c0,0.9,0.5,1.3,1.3,1.3c1.2,0,2.4,0,3.6,0
		c0.5,0,1,0,1.4,0c0.6,0,1.1,0.3,1,1c-0.1,0.5-0.5,0.8-1,0.8c-1.5,0-3,0-4.6,0c-0.6,0-1.3-0.2-1.7,0.5c-0.3,0.4-0.1,3.2,0.1,3.5
		c0.3,0.4,0.7,0.3,1.1,0.3c1.3,0,2.6,0,3.8,0c0.5,0,1,0,1.4,0.1c0.4,0.1,0.8,0.3,0.8,0.8c0.1,0.6-0.3,1-0.8,1c-2.5,0-5,0.1-7.4,0
		c-0.9,0-1.1-0.8-1.1-1.6C679.7,409.9,679.7,408,679.7,406.2C679.7,406.2,679.7,406.2,679.7,406.2z"/>
	<path fill="#151D38" d="M799.2,413.3c-0.7,0.1-1-0.3-1.3-0.7c-1-1.1-2-2.3-3-3.4c-1.5-1.7-1.5-1.7-3-0.1c-0.8,1-1.7,1.9-2.5,2.9
		c-0.3,0.4-0.6,0.7-1,1c-0.4,0.3-0.8,0.4-1.3,0c-0.4-0.4-0.3-0.9,0-1.3c0.2-0.3,0.5-0.6,0.8-0.9c1.3-1.7,3.1-2.9,3.9-5
		c-1.3-1.6-2.7-3.2-4-4.7c-0.1-0.1-0.1-0.1-0.2-0.2c-0.4-0.6-1.4-1.2-0.4-2c0.9-0.7,1.4,0.3,1.9,0.8c1.1,1.2,2.1,2.4,3.2,3.6
		c1,1.1,1.1,1.1,2.2-0.1c1.2-1.3,2.3-2.6,3.5-3.9c0.4-0.5,1-1,1.6-0.4c0.6,0.6,0.2,1.2-0.2,1.7c-1.1,1.3-2.3,2.6-3.5,4
		c-1.2,1.4-1.2,1.4,0.1,2.9c1,1.2,2.1,2.4,3.1,3.6c0.3,0.4,0.6,0.8,0.7,1.2C799.9,412.8,799.6,413.2,799.2,413.3z"/>
	<path fill="#151D38" d="M603.4,399c0.9,0,1.8-0.1,2.6,0c2.2,0.2,3.7,1.8,3.8,3.9c0.1,2-1.4,3.8-3.6,4.2c-0.6,0.1-1.3,0.1-1.9,0.1
		c-3.6,0.1-3.2-0.5-3.3,3.4c0,0.5,0,1,0,1.4c0,0.6-0.1,1.2-0.8,1.2c-0.9,0.1-1-0.7-1-1.3c0-3.7,0-7.5,0-11.2c0-1.2,0.6-1.7,1.8-1.7
		C601.8,399,602.6,399,603.4,399C603.4,399,603.4,399,603.4,399z M604.2,400.9c-3.1-0.1-3.5,0.4-3,3.3c0,0.1,0,0.2,0,0.2
		c0.1,0.4,0.3,0.7,0.8,0.7c1.4,0,2.9,0.2,4.3-0.1c1-0.2,1.6-1,1.7-2.1c0.1-1-0.8-1.9-1.9-2.1C605.5,400.9,604.8,400.9,604.2,400.9z"
		/>
	<path fill="#151D38" d="M667.7,399c1.8,0,3.3,0.6,4.6,1.7c0.5,0.4,0.9,1,0.4,1.6c-0.5,0.6-1,0.2-1.5-0.1c-0.3-0.2-0.6-0.5-1-0.7
		c-2.2-1.2-4.9-0.7-6.5,1.2c-1.7,2-1.7,4.8-0.1,6.8c1.6,1.9,4.2,2.5,6.5,1.3c0.5-0.3,0.9-0.6,1.4-0.9c0.4-0.2,0.8-0.3,1.1,0
		c0.4,0.4,0.4,0.9,0.1,1.3c-0.4,0.4-0.8,0.8-1.3,1.1c-2.6,1.6-5.9,1.4-8.3-0.5c-2.4-1.9-3.3-5.1-2.2-8
		C661.9,400.8,664.5,399,667.7,399z"/>
	<path fill="#151D38" d="M635,406c0-1.8,0-3.7,0-5.5c0-0.6,0-1.4,0.9-1.4c0.9,0,0.9,0.7,0.9,1.4c0,3,0,5.9,0,8.9
		c0,2.1,0,2.1,2.2,2.1c1.4,0,2.7,0,4.1,0c0.6,0,1.4,0,1.4,0.9c0,1.1-0.8,1-1.5,1c-2.2,0-4.3,0-6.5,0c-1.1,0-1.6-0.5-1.6-1.6
		C635,409.8,635,407.9,635,406z"/>
	<path fill="#151D38" d="M651.8,406c0-1.8,0-3.5,0-5.3c0-0.5-0.1-1,0.3-1.3c0.5-0.5,1-0.5,1.4,0.1c0.2,0.4,0.2,0.9,0.2,1.4
		c0,3.5,0,7,0,10.5c0,0.2,0,0.3,0,0.5c0,0.6-0.1,1.2-0.8,1.3c-0.8,0.1-1.1-0.5-1.1-1.2C651.9,410,651.9,408,651.8,406
		C651.9,406,651.8,406,651.8,406z"/>
	<path fill="#151D38" d="M719.7,405.7c-2.1,0-2.1,0-2.1-2.2c0-0.7,0-1.4,0-2.1c0-2.3,0.2-2.4,2.7-2.3c2,0.1,2.5,0.8,2.3,2.7
		c0,0.3-0.1,0.6-0.1,0.9C722.7,405.4,722.3,405.7,719.7,405.7z M720,402c0.7-0.1,1.7,0.1,1.7-1c0-0.9-0.9-0.9-1.6-0.9
		c-0.7,0-1.5-0.2-1.6,0.9C718.5,402.1,719.3,402,720,402z M720.1,404.8c0.2,0,0.6,0,0.9-0.1c0.5-0.1,0.9-0.4,0.8-1
		c0-0.4-0.4-0.7-0.8-0.8c-0.3-0.1-0.6-0.1-0.9-0.1c-0.7,0-1.5,0-1.4,1C718.6,404.9,719.4,404.7,720.1,404.8z"/>
	<path fill="#151D38" d="M721.1,413.4c-0.1,0.1-0.2,0.3-0.3,0.3c-0.3,0.1-0.4-0.1-0.6-0.3c-0.4-0.5-0.5-1.4-1.4-1.4
		c-1.1-0.1-2.3-0.2-2.7,1.2c-0.1,0.3-0.4,0.6-0.7,0.5c-0.3-0.1-0.3-0.5-0.2-0.8c0.8-1.6,1.5-3.1,2.3-4.7c0.3-0.6,0.8-0.5,1.1,0
		c0.8,1.5,1.6,3.1,2.3,4.7C721,413.1,721,413.3,721.1,413.4z M718.1,411c0.2,0,0.6-0.1,0.5-0.5c0-0.3-0.2-0.7-0.5-0.6
		c-0.2,0-0.4,0.3-0.5,0.5C717.5,410.7,717.5,411,718.1,411z"/>
	<path fill="#151D38" d="M702.1,402.4c0-0.2,0-0.5,0-0.7c0-2.4,1.2-3.1,3.4-2.3c0.9,0.3,1.3,0.9,1.3,1.8c0,0.8-0.5,1.5-1.4,1.7
		c-0.2,0-0.3,0.1-0.5,0.1c-1.4-0.2-2.1,0.3-1.9,1.8c0,0.3-0.1,0.7-0.5,0.6c-0.3,0-0.3-0.3-0.3-0.5
		C702.1,404,702.1,403.2,702.1,402.4C702.1,402.4,702.1,402.4,702.1,402.4z M704.5,402c0.5-0.1,1.2,0,1.2-0.9c0-1-0.9-0.9-1.6-0.9
		c-0.6,0-1.1,0.2-1.1,0.9C703,402.1,703.7,402,704.5,402z"/>
	<path fill="#151D38" d="M738.8,400.3c-1-0.1-1.8,0.2-2.3,1.1c-0.5,0.8-0.5,1.7,0.1,2.5c0.6,0.7,1.3,1.1,2.3,0.9
		c0.1,0,0.1-0.1,0.2-0.1c0.5,0,1.1-0.9,1.3-0.2c0.3,0.7-0.7,1-1.2,1.1c-1.4,0.4-2.9-0.3-3.6-1.6c-0.6-1.2-0.4-2.8,0.5-3.8
		c1-1.1,2.7-1.3,3.9-0.5c0.3,0.2,0.6,0.3,0.5,0.7c-0.2,0.6-0.6,0.2-0.9,0.1C739.3,400.5,739,400.4,738.8,400.3z"/>
	<path fill="#151D38" d="M714.6,401.8c0,0.6,0,1.3-0.2,1.9c-0.3,1.3-1.4,2.1-2.6,2c-1.2-0.1-2.2-1-2.4-2.3c0-0.3-0.1-0.6,0-1
		c0.1-0.9-0.3-1.9,0.4-2.7c1,0.6,0.3,1.7,0.5,2.5c0.1,0.2,0,0.5,0,0.7c0.1,1,0.6,1.7,1.6,1.7c1,0,1.5-0.8,1.6-1.7
		c0.1-1,0.1-1.9,0.1-2.9c0-0.2,0.1-0.5,0.5-0.3c0.1,0.1,0.3,0.2,0.3,0.3C714.5,400.6,714.5,401.2,714.6,401.8z"/>
	<path fill="#151D38" d="M710.6,413.9c-1.4,0-2.7-0.8-3.1-2c-0.5-1.3-0.1-2.8,0.9-3.7c1-0.8,2.7-0.9,3.8-0.2
		c0.3,0.2,0.5,0.4,0.3,0.8c-0.1,0.2-0.4,0.2-0.6,0.1c-0.3-0.1-0.6-0.3-0.9-0.4c-1-0.2-1.9,0.1-2.5,1c-0.5,0.8-0.5,1.7,0.1,2.5
		c0.7,0.8,1.5,1.1,2.5,0.8c0.3-0.1,0.6-0.3,0.9-0.4c0.1,0,0.3,0,0.4,0.1c0.2,0.2,0.1,0.5-0.1,0.6
		C711.9,413.7,711.3,413.9,710.6,413.9z"/>
	<path fill="#151D38" d="M726,413.9c-2.2,0-2.2,0-2.2-2.2c0-1.1,0-2.2,0.1-3.3c0-0.2,0.1-0.5,0.4-0.4c0.3,0,0.3,0.3,0.3,0.5
		c0,1,0.1,2.1,0,3.1c-0.1,1.1,0.4,1.6,1.5,1.5c0.4,0,0.8,0,1.2,0.1c0.2,0,0.4,0.1,0.5,0.4c0,0.4-0.3,0.4-0.5,0.4
		C727,413.9,726.5,413.9,726,413.9z"/>
	<path fill="#151D38" d="M731.1,410.3c0.2-0.6-0.4-2.2,0.5-2.3c0.8,0,0.3,1.6,0.4,2.4c0,0.2,0,0.5,0,0.7c0.1,1.6,0.1,1.6,1.8,1.8
		c0.4,0,0.8,0.1,1.2,0.2c0.2,0,0.3,0.2,0.2,0.4c-0.1,0.1-0.2,0.3-0.3,0.3c-1,0.2-2.1,0.2-3.1,0c-0.6-0.1-0.7-0.6-0.7-1.1
		C731.1,412,731.1,411.3,731.1,410.3z"/>
	<path fill="#151D38" d="M727.6,405.7c-2.2,0.1-2.3,0.1-2.3-2.2c0-1.1,0-2.2,0.1-3.3c0-0.2,0.1-0.5,0.4-0.4c0.3,0,0.3,0.3,0.4,0.5
		c0,1,0.1,1.9,0.1,2.9c0,1.1,0.3,1.9,1.6,1.7c0.3,0,0.6,0,1,0c0.3,0,0.7,0.1,0.6,0.5c0,0.2-0.3,0.3-0.5,0.3
		C728.4,405.7,728,405.7,727.6,405.7z"/>
	<path fill="#151D38" d="M733,402.5c0,0.8,0,1.6,0,2.4c0,0.2-0.1,0.5-0.4,0.4c-0.3,0-0.4-0.3-0.4-0.5c0-1.6,0-3.2,0-4.7
		c0-0.1,0.2-0.3,0.3-0.3c0.3-0.1,0.4,0.1,0.5,0.3C733,400.9,733.1,401.7,733,402.5C733.1,402.5,733,402.5,733,402.5z"/>
</g>
</svg>
