<?xml version="1.0" encoding="iso-8859-1"?>
<!-- Generator: Adobe Illustrator 19.0.0, SVG Export Plug-In . SVG Version: 6.00 Build 0)  -->
<svg version="1.1" id="Layer_1" xmlns="http://www.w3.org/2000/svg" xmlns:xlink="http://www.w3.org/1999/xlink" x="0px" y="0px"
	 viewBox="0 0 496.158 496.158" style="enable-background:new 0 0 496.158 496.158;" xml:space="preserve">
<path style="fill:#334D5C;" d="M248.082,0.003C111.07,0.003,0,111.063,0,248.085c0,137.001,111.07,248.07,248.082,248.07
	c137.006,0,248.076-111.069,248.076-248.07C496.158,111.062,385.088,0.003,248.082,0.003z"/>
<path style="fill:#9FDDDB;" d="M303.687,383.106l-61.444-86.698l-32.293-86.947l36.423-90.231l50.335-58.723
	c1.367-1.596,1.183-3.998-0.413-5.366c-1.597-1.368-3.998-1.183-5.366,0.413l-50.74,59.196c-0.269,0.313-0.484,0.669-0.64,1.052
	l-37.209,92.177c-0.354,0.879-0.368,1.86-0.038,2.75l31.837,85.719l-58.45,43.522c-1.657,1.234-2.027,3.564-0.834,5.25
	l67.007,94.689c0.637,0.899,1.632,1.479,2.728,1.588c0.127,0.013,0.253,0.019,0.379,0.019c0.966,0,1.9-0.368,2.609-1.036
	l55.615-52.405C304.574,386.774,304.785,384.654,303.687,383.106z M245.545,431.938l-62.332-88.083l54.545-40.614l57.807,81.564
	L245.545,431.938z"/>
<g>
	<path style="fill:#EAFFFF;" d="M205.869,199.875c-5.262,0-9.529,4.268-9.529,9.528c0,5.264,4.268,9.53,9.529,9.53
		c5.26,0,9.527-4.266,9.527-9.53C215.396,204.143,211.129,199.875,205.869,199.875z"/>
	<path style="fill:#EAFFFF;" d="M243.165,107.326c-5.262,0-9.529,4.268-9.529,9.528c0,5.264,4.268,9.53,9.529,9.53
		c5.26,0,9.528-4.266,9.528-9.53C252.693,111.594,248.425,107.326,243.165,107.326z"/>
	<path style="fill:#EAFFFF;" d="M294.274,47.928c-5.262,0-9.529,4.268-9.529,9.528c0,5.264,4.268,9.53,9.529,9.53
		s9.528-4.267,9.528-9.53C303.803,52.196,299.535,47.928,294.274,47.928z"/>
	<circle style="fill:#EAFFFF;" cx="238.099" cy="298.269" r="9.529"/>
	<circle style="fill:#EAFFFF;" cx="299.799" cy="384.839" r="9.529"/>
	<path style="fill:#EAFFFF;" d="M245.007,426.415c-5.262,0-9.529,4.268-9.529,9.528c0,5.264,4.268,9.53,9.529,9.53
		c5.26,0,9.528-4.266,9.528-9.53C254.535,430.683,250.267,426.415,245.007,426.415z"/>
	<path style="fill:#EAFFFF;" d="M179.163,333.866c-5.263,0-9.529,4.268-9.529,9.528c0,5.264,4.267,9.53,9.529,9.53
		c5.26,0,9.528-4.266,9.528-9.53C188.691,338.133,184.423,333.866,179.163,333.866z"/>
</g>
<g>
</g>
<g>
</g>
<g>
</g>
<g>
</g>
<g>
</g>
<g>
</g>
<g>
</g>
<g>
</g>
<g>
</g>
<g>
</g>
<g>
</g>
<g>
</g>
<g>
</g>
<g>
</g>
<g>
</g>
</svg>
